<svg width="15" height="16" viewBox="0 0 15 16" fill="none" xmlns="http://www.w3.org/2000/svg">
<path d="M3.99 8.55792V14.1629C3.99 14.4947 3.85822 14.8128 3.62364 15.0474C3.38906 15.282 3.07091 15.4137 2.73917 15.4137H1.25083C0.919092 15.4137 0.600937 15.282 0.366361 15.0474C0.131784 14.8128 2.4654e-10 14.4947 2.4654e-10 14.1629V8.55792C-6.57539e-06 8.22544 0.131524 7.90647 0.365876 7.67063C0.600228 7.4348 0.918366 7.30126 1.25083 7.29917H2.73917C3.07163 7.30126 3.38977 7.4348 3.62412 7.67063C3.85848 7.90647 3.99001 8.22544 3.99 8.55792ZM9.48417 4.92417V14.1867C9.48208 14.5191 9.34854 14.8373 9.1127 15.0716C8.87687 15.306 8.55789 15.4375 8.22542 15.4375H6.745C6.41253 15.4375 6.09355 15.306 5.85772 15.0716C5.62188 14.8373 5.48834 14.5191 5.48625 14.1867V4.92417C5.48625 4.59033 5.61887 4.27016 5.85493 4.0341C6.09099 3.79803 6.41116 3.66542 6.745 3.66542H8.22542C8.55926 3.66542 8.87943 3.79803 9.11549 4.0341C9.35155 4.27016 9.48417 4.59033 9.48417 4.92417ZM14.9783 1.25875V14.1867C14.9762 14.5191 14.8427 14.8373 14.6069 15.0716C14.371 15.306 14.0521 15.4375 13.7196 15.4375H12.2392C11.9067 15.4375 11.5877 15.306 11.3519 15.0716C11.116 14.8373 10.9825 14.5191 10.9804 14.1867V1.25875C10.9804 0.924909 11.113 0.604741 11.3491 0.368679C11.5852 0.132618 11.9053 0 12.2392 0H13.7196C14.0534 0 14.3736 0.132618 14.6097 0.368679C14.8457 0.604741 14.9783 0.924909 14.9783 1.25875Z" fill="black"/>
</svg>
