<svg width="20" height="19" viewBox="0 0 20 19" fill="none" xmlns="http://www.w3.org/2000/svg">
<path d="M10.0005 1.37569e-08C12.0755 -0.000108796 14.0991 0.645256 15.7909 1.84665C17.4827 3.04804 18.7589 4.74595 19.4426 6.70506C20.1263 8.66417 20.1837 10.7874 19.6067 12.7806C19.0297 14.7737 17.847 16.5381 16.2225 17.829C16.0457 17.9695 15.8264 18.046 15.6005 18.046H4.40053C4.17463 18.046 3.9554 17.9695 3.77852 17.829C2.15402 16.5381 0.971328 14.7737 0.394361 12.7806C-0.182606 10.7874 -0.12527 8.66417 0.558424 6.70506C1.24212 4.74595 2.51831 3.04804 4.21011 1.84665C5.90192 0.645256 7.92554 -0.000108796 10.0005 1.37569e-08ZM14.2075 5.839C14.02 5.65153 13.7657 5.54621 13.5005 5.54621C13.2354 5.54621 12.9811 5.65153 12.7935 5.839L10.5175 8.113C10.2308 8.03677 9.93067 8.02519 9.63891 8.0791C9.34714 8.13302 9.07099 8.25108 8.83043 8.42476C8.58986 8.59844 8.39089 8.82339 8.24788 9.08337C8.10487 9.34334 8.02141 9.63183 8.00352 9.928L8.00052 10.046C8.00105 10.3303 8.0622 10.6113 8.17989 10.8702C8.29759 11.129 8.46913 11.3598 8.68306 11.5471C8.897 11.7344 9.14842 11.8739 9.42055 11.9564C9.69268 12.0388 9.97926 12.0623 10.2612 12.0253C10.5431 11.9882 10.8139 11.8915 11.0555 11.7415C11.297 11.5915 11.5038 11.3917 11.6621 11.1555C11.8204 10.9192 11.9264 10.652 11.9732 10.3715C12.02 10.091 12.0065 9.80382 11.9335 9.529L14.2075 7.253C14.395 7.06547 14.5003 6.81116 14.5003 6.546C14.5003 6.28084 14.395 6.02653 14.2075 5.839Z" fill="black"/>
</svg>
