<svg width="20" height="20" viewBox="0 0 20 20" fill="none" xmlns="http://www.w3.org/2000/svg">
<path d="M16.6668 5.00008C16.6668 3.19341 13.6143 1.66675 10.0002 1.66675C6.386 1.66675 3.3335 3.19341 3.3335 5.00008V6.66675C3.3335 8.47341 6.386 10.0001 10.0002 10.0001C13.6143 10.0001 16.6668 8.47341 16.6668 6.66675V5.00008ZM10.0002 15.8334C6.386 15.8334 3.3335 14.3067 3.3335 12.5001V15.0001C3.3335 16.8067 6.386 18.3334 10.0002 18.3334C13.6143 18.3334 16.6668 16.8067 16.6668 15.0001V12.5001C16.6668 14.3067 13.6143 15.8334 10.0002 15.8334Z" fill="black"/>
<path d="M16.6668 8.33325C16.6668 10.1399 13.6143 11.6666 10.0002 11.6666C6.386 11.6666 3.3335 10.1399 3.3335 8.33325V10.8333C3.3335 12.6399 6.386 14.1666 10.0002 14.1666C13.6143 14.1666 16.6668 12.6399 16.6668 10.8333V8.33325Z" fill="black"/>
</svg>
