<svg width="14" height="16" viewBox="0 0 14 16" fill="none" xmlns="http://www.w3.org/2000/svg">
<path d="M5.49019 0.14808C5.56533 0.0866751 5.65316 0.0427006 5.74735 0.0193241C5.84154 -0.00405244 5.93974 -0.0062489 6.03487 0.0128928L12.5974 1.32539C12.7461 1.35512 12.8799 1.43543 12.9761 1.55268C13.0723 1.66992 13.1249 1.81686 13.125 1.96852V13.7771C13.1249 13.9287 13.0723 14.0757 12.9761 14.1929C12.8799 14.3102 12.7461 14.3905 12.5974 14.4202L6.03487 15.7327C5.9397 15.7517 5.8415 15.7494 5.74733 15.7259C5.65317 15.7024 5.56539 15.6583 5.49032 15.5968C5.41525 15.5353 5.35476 15.4579 5.3132 15.3702C5.27164 15.2825 5.25006 15.1866 5.25 15.0896V0.656018M9.1875 7.87214C9.1875 7.69809 9.11836 7.53117 8.99529 7.4081C8.87222 7.28503 8.7053 7.21589 8.53125 7.21589C8.3572 7.21589 8.19028 7.28503 8.06721 7.4081C7.94414 7.53117 7.875 7.69809 7.875 7.87214C7.875 8.04619 7.94414 8.21311 8.06721 8.33618C8.19028 8.45925 8.3572 8.52839 8.53125 8.52839C8.7053 8.52839 8.87222 8.45925 8.99529 8.33618C9.11836 8.21311 9.1875 8.04619 9.1875 7.87214ZM3.9375 1.31227H0.65625C0.482202 1.31227 0.315282 1.38141 0.192211 1.50448C0.0691406 1.62755 0 1.79447 0 1.96852V13.7771C0 13.9511 0.0691406 14.118 0.192211 14.2411C0.315282 14.3642 0.482202 14.4333 0.65625 14.4333H3.9375V1.31227ZM5.49019 0.14808C5.41505 0.209683 5.35452 0.287204 5.31298 0.375044C5.27145 0.462884 5.24994 0.558852 5.25 0.656018L5.49019 0.14808Z" fill="black"/>
</svg>
