<svg width="14" height="14" viewBox="0 0 14 14" fill="none" xmlns="http://www.w3.org/2000/svg">
<path d="M10.4998 4.08333H3.49984V1.75H10.4998V4.08333ZM10.4998 7.29167C10.6651 7.29167 10.8038 7.23567 10.9158 7.12367C11.0278 7.01167 11.0836 6.87322 11.0832 6.70833C11.0828 6.54344 11.0268 6.405 10.9152 6.293C10.8036 6.181 10.6651 6.125 10.4998 6.125C10.3346 6.125 10.1961 6.181 10.0845 6.293C9.97289 6.405 9.91689 6.54344 9.9165 6.70833C9.91611 6.87322 9.97211 7.01186 10.0845 7.12425C10.1969 7.23664 10.3353 7.29244 10.4998 7.29167ZM9.33317 11.0833V8.75H4.6665V11.0833H9.33317ZM10.4998 12.25H3.49984V9.91667H1.1665V6.41667C1.1665 5.92083 1.33664 5.50531 1.67692 5.17008C2.0172 4.83486 2.43039 4.66706 2.9165 4.66667H11.0832C11.579 4.66667 11.9947 4.83447 12.3303 5.17008C12.6659 5.50569 12.8336 5.92122 12.8332 6.41667V9.91667H10.4998V12.25Z" fill="black"/>
</svg>
