<svg width="92" height="92" viewBox="0 0 92 92" fill="none" xmlns="http://www.w3.org/2000/svg">
<circle cx="46" cy="46" r="46" fill="#DBE9FE"/>
<path d="M42.732 22.452C42.961 22.2649 43.2287 22.1308 43.5157 22.0596C43.8028 21.9884 44.1021 21.9817 44.392 22.04L64.392 26.04C64.8452 26.1306 65.2531 26.3754 65.5462 26.7327C65.8394 27.09 65.9997 27.5378 66 28V63.988C65.9997 64.4502 65.8394 64.898 65.5462 65.2553C65.2531 65.6127 64.8452 65.8574 64.392 65.948L44.392 69.948C44.102 70.006 43.8027 69.9989 43.5157 69.9273C43.2287 69.8556 42.9612 69.7213 42.7324 69.5338C42.5036 69.3463 42.3193 69.1104 42.1926 68.8431C42.066 68.5758 42.0002 68.2838 42 67.988V24M54 45.992C54 45.4616 53.7893 44.9529 53.4142 44.5778C53.0391 44.2027 52.5304 43.992 52 43.992C51.4696 43.992 50.9609 44.2027 50.5858 44.5778C50.2107 44.9529 50 45.4616 50 45.992C50 46.5224 50.2107 47.0311 50.5858 47.4062C50.9609 47.7813 51.4696 47.992 52 47.992C52.5304 47.992 53.0391 47.7813 53.4142 47.4062C53.7893 47.0311 54 46.5224 54 45.992ZM38 26H28C27.4696 26 26.9609 26.2107 26.5858 26.5858C26.2107 26.9609 26 27.4696 26 28V63.988C26 64.5184 26.2107 65.0271 26.5858 65.4022C26.9609 65.7773 27.4696 65.988 28 65.988H38V26ZM42.732 22.452C42.503 22.6397 42.3185 22.876 42.192 23.1437C42.0654 23.4114 41.9998 23.7039 42 24L42.732 22.452Z" fill="#00579B"/>
</svg>
